<?xml version="1.0" standalone="no"?>
<!DOCTYPE svg PUBLIC "-//W3C//DTD SVG 20010904//EN"
 "http://www.w3.org/TR/2001/REC-SVG-20010904/DTD/svg10.dtd">
<svg version="1.0" xmlns="http://www.w3.org/2000/svg"
 width="200.000000pt" height="200.000000pt" viewBox="0 0 200.000000 200.000000"
 preserveAspectRatio="xMidYMid meet">

<g transform="translate(0.000000,200.000000) scale(0.100000,-0.100000)"
fill="#000000" stroke="none">
<path d="M930 1933 c-401 -37 -735 -323 -830 -711 -121 -499 179 -999 678
-1129 120 -31 313 -35 430 -9 141 31 306 110 392 186 33 29 32 29 -16 -5 -183
-126 -460 -180 -679 -132 -337 73 -601 326 -687 660 -30 114 -30 299 0 413 44
169 124 305 254 430 46 43 116 98 156 122 298 176 666 168 952 -22 49 -32 51
-33 20 -6 -85 74 -238 148 -373 180 -79 19 -224 30 -297 23z"/>
<path d="M910 1825 c-114 -25 -270 -95 -335 -150 -19 -16 -7 -11 35 14 138 81
293 118 458 108 121 -8 194 -27 302 -80 47 -23 90 -41 97 -41 7 1 11 -3 10 -8
-1 -6 4 -13 12 -16 9 -3 11 0 6 8 -6 9 -4 11 4 6 7 -5 10 -11 7 -14 -7 -7 24
-42 37 -42 5 0 3 8 -4 18 -13 15 -12 16 3 3 10 -7 16 -17 13 -21 -5 -8 59 -72
66 -65 3 3 16 -7 30 -22 22 -25 22 -26 2 -9 -13 11 -23 15 -23 9 0 -13 35 -45
42 -38 3 3 11 -3 19 -12 13 -16 12 -17 -3 -4 -10 7 -18 9 -18 3 0 -15 26 -33
35 -24 5 4 5 1 1 -5 -9 -17 12 -55 26 -47 6 4 8 3 5 -3 -4 -6 5 -37 19 -69 48
-109 66 -198 66 -329 0 -100 -4 -135 -26 -208 -15 -49 -35 -106 -47 -128 -11
-22 -17 -45 -13 -51 4 -7 3 -8 -4 -4 -6 3 -16 -2 -21 -13 -14 -26 -14 -34 1
-25 7 4 8 3 4 -5 -4 -6 -11 -9 -16 -6 -4 3 -20 -11 -34 -29 -30 -40 -34 -54
-8 -35 14 11 14 10 -2 -8 -10 -13 -22 -21 -26 -18 -9 5 -82 -69 -75 -77 3 -3
-3 -11 -12 -19 -16 -13 -17 -12 -4 4 7 9 9 17 4 17 -12 0 -50 -40 -45 -47 2
-3 0 -8 -4 -11 -4 -4 -4 -1 0 6 10 18 -2 15 -34 -8 -46 -33 -170 -88 -240
-107 -47 -13 -103 -18 -200 -18 -157 0 -240 18 -360 77 -41 21 -66 30 -55 22
37 -28 169 -91 240 -114 53 -17 103 -24 205 -27 154 -6 229 6 356 57 81 32
222 119 214 132 -7 10 101 118 111 112 18 -11 115 148 103 168 -4 6 -3 8 3 5
13 -8 44 62 69 153 25 91 25 328 0 420 -23 83 -66 181 -77 174 -5 -3 -6 1 -4
8 7 17 -52 111 -64 104 -5 -3 -15 2 -22 12 -13 15 -12 16 4 3 25 -20 21 2 -5
25 -14 12 -19 14 -13 4 4 -8 -17 9 -48 39 -31 30 -54 57 -52 59 6 7 -15 32
-27 32 -5 0 -6 -5 -2 -12 4 -7 3 -8 -5 -4 -6 4 -9 12 -6 17 8 12 -86 71 -103
64 -7 -2 -11 -1 -8 4 7 11 -90 54 -169 76 -84 23 -310 29 -395 10z"/>
<path d="M1669 1596 c25 -25 47 -43 50 -41 6 7 -49 64 -74 77 -11 6 0 -10 24
-36z"/>
<path d="M1549 1150 c-94 -28 -137 -133 -93 -226 28 -59 126 -99 184 -75 23
10 22 10 -10 5 -100 -15 -187 85 -161 184 14 49 55 88 112 106 31 10 37 14 19
14 -14 0 -37 -3 -51 -8z"/>
<path d="M1638 1143 c7 -3 16 -2 19 1 4 3 -2 6 -13 5 -11 0 -14 -3 -6 -6z"/>
<path d="M270 1000 c0 -120 0 -121 23 -118 21 3 22 6 22 118 0 112 -1 115 -22
118 -23 3 -23 2 -23 -118z"/>
<path d="M385 1110 c-14 -23 11 -30 108 -30 l103 0 -4 -101 c-4 -101 -4 -101
19 -97 21 3 23 7 20 56 -3 61 13 117 37 128 9 4 51 10 92 13 58 5 75 9 75 21
0 13 -33 15 -222 18 -143 1 -224 -1 -228 -8z"/>
<path d="M927 1102 c-23 -25 -22 -85 1 -105 16 -15 45 -17 194 -17 97 0 183
-3 192 -6 13 -5 23 -39 14 -46 -2 -1 -93 -4 -203 -7 -169 -5 -200 -8 -200 -21
0 -13 31 -15 207 -18 197 -2 209 -1 228 18 26 26 26 70 0 98 -20 21 -28 22
-204 22 -151 0 -186 3 -196 15 -10 12 -10 18 0 30 10 12 46 15 206 15 187 0
194 1 194 20 0 19 -7 20 -208 20 -190 0 -210 -2 -225 -18z"/>
<path d="M1635 1096 c46 -20 70 -52 70 -96 0 -43 -23 -75 -70 -97 l-30 -14 30
6 c45 9 85 57 85 103 0 21 -7 48 -16 60 -16 23 -64 52 -86 52 -7 -1 1 -7 17
-14z"/>
<path d="M1675 410 c-27 -28 -45 -50 -39 -50 13 0 99 88 93 95 -3 2 -27 -18
-54 -45z"/>
<path d="M550 346 c0 -2 8 -10 18 -17 15 -13 16 -12 3 4 -13 16 -21 21 -21 13z"/>
</g>
</svg>
